<!DOCTYPE svg PUBLIC "-//W3C//DTD SVG 1.1//EN" "http://www.w3.org/Graphics/SVG/1.1/DTD/svg11.dtd">

<!-- Uploaded to: SVG Repo, www.svgrepo.com, Transformed by: SVG Repo Mixer Tools -->
<svg fill="#d4d4d8" height="800px" width="800px" version="1.1" id="Layer_1" xmlns="http://www.w3.org/2000/svg" xmlns:xlink="http://www.w3.org/1999/xlink" viewBox="0 0 512 512" xml:space="preserve" stroke="#d4d4d8">

<g id="SVGRepo_bgCarrier" stroke-width="0"/>

<g id="SVGRepo_tracerCarrier" stroke-linecap="round" stroke-linejoin="round"/>

<g id="SVGRepo_iconCarrier"> <g> <g> <g> <path d="M469.333,64V42.667C469.333,19.109,450.225,0,426.667,0H85.333C61.775,0,42.667,19.109,42.667,42.667V64 c0,23.558,19.109,42.667,42.667,42.667v128c-23.558,0-42.667,19.109-42.667,42.667v21.333c0,23.558,19.109,42.667,42.667,42.667 v128C85.333,492.891,104.442,512,128,512h256c23.558,0,42.667-19.109,42.667-42.667v-128c23.558,0,42.667-19.109,42.667-42.667 v-21.333c0-23.558-19.109-42.667-42.667-42.667v-128C450.225,106.667,469.333,87.558,469.333,64z M85.333,42.667h341.333V64 h-21.333H106.667H85.333V42.667z M384,469.333H128v-128h256V469.333z M426.667,298.667h-21.333H106.667H85.333v-21.333h21.333 h298.667h21.333V298.667z M384,234.667H128v-128h256V234.667z"/> <path d="M234.667,405.333h42.667c11.782,0,21.333-9.551,21.333-21.333c0-11.782-9.551-21.333-21.333-21.333h-42.667 c-11.782,0-21.333,9.551-21.333,21.333C213.333,395.782,222.885,405.333,234.667,405.333z"/> <path d="M234.667,170.667h42.667c11.782,0,21.333-9.551,21.333-21.333c0-11.782-9.551-21.333-21.333-21.333h-42.667 c-11.782,0-21.333,9.551-21.333,21.333C213.333,161.115,222.885,170.667,234.667,170.667z"/> </g> </g> </g> </g>

</svg>