<svg xmlns="http://www.w3.org/2000/svg" xmlns:xlink="http://www.w3.org/1999/xlink" width="100" zoomAndPan="magnify" viewBox="0 0 75 48" height="64" preserveAspectRatio="xMidYMid meet" version="1.0"><defs><g/><clipPath id="52e90dac5c"><path d="M 0.765625 19 L 14 19 L 14 33 L 0.765625 33 Z M 0.765625 19 " clip-rule="nonzero"/></clipPath><clipPath id="ebdfdcc37b"><path d="M 60 18 L 74.234375 18 L 74.234375 33 L 60 33 Z M 60 18 " clip-rule="nonzero"/></clipPath></defs><g clip-path="url(#52e90dac5c)"><g fill="#ffffff" fill-opacity="1"><g transform="translate(1.95896, 32.722962)"><g><path d="M 7.34375 -9.34375 C 7.070312 -9.695312 6.722656 -9.941406 6.296875 -10.078125 C 5.878906 -10.222656 5.40625 -10.25 4.875 -10.15625 C 3.96875 -10 3.289062 -9.578125 2.84375 -8.890625 C 2.40625 -8.203125 2.269531 -7.363281 2.4375 -6.375 C 2.613281 -5.300781 3.035156 -4.515625 3.703125 -4.015625 C 4.378906 -3.515625 5.222656 -3.351562 6.234375 -3.53125 C 6.921875 -3.644531 7.472656 -3.914062 7.890625 -4.34375 C 8.316406 -4.769531 8.582031 -5.332031 8.6875 -6.03125 L 5.125 -5.421875 L 4.78125 -7.5 L 10.890625 -8.53125 L 11.328125 -5.90625 C 11.234375 -5.175781 10.988281 -4.46875 10.59375 -3.78125 C 10.195312 -3.09375 9.644531 -2.5 8.9375 -2 C 8.238281 -1.5 7.40625 -1.164062 6.4375 -1 C 5.300781 -0.8125 4.242188 -0.890625 3.265625 -1.234375 C 2.285156 -1.585938 1.472656 -2.164062 0.828125 -2.96875 C 0.179688 -3.769531 -0.234375 -4.742188 -0.421875 -5.890625 C -0.617188 -7.023438 -0.546875 -8.078125 -0.203125 -9.046875 C 0.140625 -10.023438 0.710938 -10.835938 1.515625 -11.484375 C 2.328125 -12.140625 3.300781 -12.5625 4.4375 -12.75 C 5.820312 -12.976562 7.046875 -12.835938 8.109375 -12.328125 C 9.171875 -11.816406 9.953125 -11 10.453125 -9.875 Z M 7.34375 -9.34375 "/></g></g></g></g><g fill="#ffffff" fill-opacity="1"><g transform="translate(14.120655, 30.670553)"><g><path d="M 8.0625 -2.859375 L 3.734375 -2.4375 L 3.234375 -0.3125 L 0.265625 -0.03125 L 3.34375 -12.078125 L 6.625 -12.40625 L 11.96875 -1.171875 L 8.96875 -0.890625 Z M 7.125 -5 L 5.265625 -9.09375 L 4.265625 -4.703125 Z M 7.125 -5 "/></g></g></g><g fill="#ffffff" fill-opacity="1"><g transform="translate(25.981392, 29.485663)"><g><path d="M 11.5 -0.34375 L 8.65625 -0.265625 L 3.671875 -7.328125 L 3.890625 -0.109375 L 1.03125 -0.03125 L 0.6875 -11.734375 L 3.546875 -11.8125 L 8.515625 -4.71875 L 8.3125 -11.96875 L 11.15625 -12.046875 Z M 11.5 -0.34375 "/></g></g></g><g fill="#ffffff" fill-opacity="1"><g transform="translate(38.154684, 29.123798)"><g><path d="M 7.8125 0.28125 L 4.078125 -5.03125 L 3.890625 0.140625 L 1.03125 0.03125 L 1.453125 -11.65625 L 4.3125 -11.546875 L 4.125 -6.421875 L 8.203125 -11.40625 L 11.5625 -11.28125 L 6.828125 -5.734375 L 11.296875 0.40625 Z M 7.8125 0.28125 "/></g></g></g><g fill="#ffffff" fill-opacity="1"><g transform="translate(49.428961, 29.529743)"><g><path d="M 12.171875 -10.546875 L 7.359375 -3.171875 L 6.984375 0.6875 L 4.15625 0.40625 L 4.53125 -3.453125 L 1.265625 -11.625 L 4.484375 -11.3125 L 6.265625 -6.203125 L 9 -10.859375 Z M 12.171875 -10.546875 "/></g></g></g><g clip-path="url(#ebdfdcc37b)"><g fill="#ffffff" fill-opacity="1"><g transform="translate(60.208543, 30.555546)"><g><path d="M 6.453125 1.1875 C 5.378906 1.007812 4.429688 0.59375 3.609375 -0.0625 C 2.785156 -0.71875 2.179688 -1.539062 1.796875 -2.53125 C 1.421875 -3.519531 1.328125 -4.582031 1.515625 -5.71875 C 1.703125 -6.84375 2.132812 -7.8125 2.8125 -8.625 C 3.5 -9.4375 4.335938 -10.019531 5.328125 -10.375 C 6.316406 -10.726562 7.347656 -10.816406 8.421875 -10.640625 C 9.515625 -10.453125 10.46875 -10.03125 11.28125 -9.375 C 12.101562 -8.71875 12.695312 -7.894531 13.0625 -6.90625 C 13.4375 -5.925781 13.53125 -4.875 13.34375 -3.75 C 13.15625 -2.613281 12.722656 -1.632812 12.046875 -0.8125 C 11.367188 0 10.539062 0.582031 9.5625 0.9375 C 8.582031 1.289062 7.546875 1.375 6.453125 1.1875 Z M 6.875 -1.375 C 7.800781 -1.21875 8.59375 -1.394531 9.25 -1.90625 C 9.914062 -2.425781 10.332031 -3.195312 10.5 -4.21875 C 10.664062 -5.226562 10.519531 -6.082031 10.0625 -6.78125 C 9.613281 -7.488281 8.925781 -7.921875 8 -8.078125 C 7.070312 -8.234375 6.28125 -8.050781 5.625 -7.53125 C 4.976562 -7.019531 4.566406 -6.253906 4.390625 -5.234375 C 4.222656 -4.203125 4.363281 -3.335938 4.8125 -2.640625 C 5.257812 -1.953125 5.945312 -1.53125 6.875 -1.375 Z M 6.875 -1.375 "/></g></g></g></g></svg>