<svg xmlns="http://www.w3.org/2000/svg" xmlns:xlink="http://www.w3.org/1999/xlink" width="100" zoomAndPan="magnify" viewBox="0 0 75 48" height="64" preserveAspectRatio="xMidYMid meet" version="1.0"><defs><g/><clipPath id="a529a31e66"><path d="M 0.765625 14.816406 L 16.929688 14.816406 L 16.929688 30.242188 L 0.765625 30.242188 Z M 0.765625 14.816406 " clip-rule="nonzero"/></clipPath></defs><g clip-path="url(#a529a31e66)"><path fill="#7b39ff" d="M 16.746094 29.535156 L 15.585938 27.335938 L 15.265625 26.71875 L 13.433594 26.71875 L 13.753906 27.335938 L 14.425781 28.609375 L 3.527344 28.609375 L 4.199219 27.335938 L 7.097656 21.84375 L 8.238281 19.6875 L 8.980469 18.292969 L 9.871094 19.980469 L 10.789062 18.25 L 8.980469 14.820312 L 7.328125 17.949219 L 6.1875 20.105469 L 2.371094 27.335938 L 1.207031 29.535156 L 0.765625 30.375 L 17.191406 30.375 Z M 16.746094 29.535156 " fill-opacity="1" fill-rule="nonzero"/></g><g fill="#ffffff" fill-opacity="1"><g transform="translate(21.210458, 27.183675)"><g><path d="M 6.359375 -5.78125 C 6.203125 -6.0625 5.984375 -6.273438 5.703125 -6.421875 C 5.421875 -6.578125 5.085938 -6.65625 4.703125 -6.65625 C 4.035156 -6.65625 3.5 -6.4375 3.09375 -6 C 2.695312 -5.5625 2.5 -4.972656 2.5 -4.234375 C 2.5 -3.460938 2.707031 -2.859375 3.125 -2.421875 C 3.550781 -1.984375 4.128906 -1.765625 4.859375 -1.765625 C 5.367188 -1.765625 5.796875 -1.890625 6.140625 -2.140625 C 6.492188 -2.398438 6.753906 -2.769531 6.921875 -3.25 L 4.296875 -3.25 L 4.296875 -4.765625 L 8.78125 -4.765625 L 8.78125 -2.859375 C 8.625 -2.335938 8.363281 -1.859375 8 -1.421875 C 7.632812 -0.984375 7.171875 -0.625 6.609375 -0.34375 C 6.046875 -0.0703125 5.410156 0.0625 4.703125 0.0625 C 3.867188 0.0625 3.125 -0.117188 2.46875 -0.484375 C 1.820312 -0.847656 1.3125 -1.351562 0.9375 -2 C 0.570312 -2.65625 0.390625 -3.398438 0.390625 -4.234375 C 0.390625 -5.078125 0.570312 -5.820312 0.9375 -6.46875 C 1.3125 -7.125 1.820312 -7.632812 2.46875 -8 C 3.125 -8.363281 3.867188 -8.546875 4.703125 -8.546875 C 5.710938 -8.546875 6.5625 -8.300781 7.25 -7.8125 C 7.945312 -7.320312 8.410156 -6.644531 8.640625 -5.78125 Z M 6.359375 -5.78125 "/></g></g></g><g fill="#ffffff" fill-opacity="1"><g transform="translate(30.37782, 27.183675)"><g><path d="M 6.015625 -1.5 L 2.859375 -1.5 L 2.34375 0 L 0.1875 0 L 3.25 -8.453125 L 5.640625 -8.453125 L 8.703125 0 L 6.515625 0 Z M 5.484375 -3.078125 L 4.4375 -6.1875 L 3.390625 -3.078125 Z M 5.484375 -3.078125 "/></g></g></g><g fill="#ffffff" fill-opacity="1"><g transform="translate(39.244414, 27.183675)"><g><path d="M 8.3125 0 L 6.25 0 L 2.8125 -5.21875 L 2.8125 0 L 0.75 0 L 0.75 -8.453125 L 2.8125 -8.453125 L 6.25 -3.21875 L 6.25 -8.453125 L 8.3125 -8.453125 Z M 8.3125 0 "/></g></g></g><g fill="#ffffff" fill-opacity="1"><g transform="translate(48.291476, 27.183675)"><g><path d="M 5.65625 0 L 2.8125 -3.734375 L 2.8125 0 L 0.75 0 L 0.75 -8.453125 L 2.8125 -8.453125 L 2.8125 -4.75 L 5.625 -8.453125 L 8.046875 -8.453125 L 4.765625 -4.3125 L 8.171875 0 Z M 5.65625 0 "/></g></g></g><g fill="#ffffff" fill-opacity="1"><g transform="translate(56.676846, 27.183675)"><g><path d="M 8 -8.453125 L 5.078125 -2.796875 L 5.078125 0 L 3.015625 0 L 3.015625 -2.796875 L 0.078125 -8.453125 L 2.421875 -8.453125 L 4.0625 -4.921875 L 5.6875 -8.453125 Z M 8 -8.453125 "/></g></g></g><g fill="#ffffff" fill-opacity="1"><g transform="translate(64.749421, 27.183675)"><g><path d="M 4.75 0.078125 C 3.945312 0.078125 3.210938 -0.101562 2.546875 -0.46875 C 1.890625 -0.84375 1.363281 -1.359375 0.96875 -2.015625 C 0.582031 -2.679688 0.390625 -3.425781 0.390625 -4.25 C 0.390625 -5.082031 0.582031 -5.828125 0.96875 -6.484375 C 1.363281 -7.140625 1.890625 -7.648438 2.546875 -8.015625 C 3.210938 -8.390625 3.945312 -8.578125 4.75 -8.578125 C 5.539062 -8.578125 6.265625 -8.390625 6.921875 -8.015625 C 7.585938 -7.648438 8.113281 -7.140625 8.5 -6.484375 C 8.882812 -5.828125 9.078125 -5.082031 9.078125 -4.25 C 9.078125 -3.425781 8.882812 -2.679688 8.5 -2.015625 C 8.113281 -1.359375 7.585938 -0.84375 6.921875 -0.46875 C 6.265625 -0.101562 5.539062 0.078125 4.75 0.078125 Z M 4.75 -1.796875 C 5.425781 -1.796875 5.960938 -2.019531 6.359375 -2.46875 C 6.765625 -2.914062 6.96875 -3.507812 6.96875 -4.25 C 6.96875 -5 6.765625 -5.59375 6.359375 -6.03125 C 5.960938 -6.476562 5.425781 -6.703125 4.75 -6.703125 C 4.0625 -6.703125 3.515625 -6.484375 3.109375 -6.046875 C 2.703125 -5.609375 2.5 -5.007812 2.5 -4.25 C 2.5 -3.5 2.703125 -2.898438 3.109375 -2.453125 C 3.515625 -2.015625 4.0625 -1.796875 4.75 -1.796875 Z M 4.75 -1.796875 "/></g></g></g></svg>